<svg id="Component_36_2" data-name="Component 36 – 2" xmlns="http://www.w3.org/2000/svg" xmlns:xlink="http://www.w3.org/1999/xlink" width="80.489" height="64.815" viewBox="0 0 80.489 64.815">
  <defs>
    <linearGradient id="linear-gradient" x1="0.496" y1="0.979" x2="0.502" y2="0.076" gradientUnits="objectBoundingBox">
      <stop offset="0" stop-color="#e00065"/>
      <stop offset="1" stop-color="#0c2a6e"/>
    </linearGradient>
    <linearGradient id="linear-gradient-2" x1="0.39" y1="0.686" x2="0.598" y2="0.279" gradientUnits="objectBoundingBox">
      <stop offset="0" stop-color="#0c2a6e"/>
      <stop offset="1" stop-color="#00a1e1"/>
    </linearGradient>
    <linearGradient id="linear-gradient-3" x1="0.356" y1="2.053" x2="0.641" y2="-0.415" xlink:href="#linear-gradient-2"/>
    <linearGradient id="linear-gradient-4" x1="0.504" y1="0.766" x2="0.477" y2="-0.938" xlink:href="#linear-gradient"/>
  </defs>
  <g id="Group_17" data-name="Group 17" transform="translate(-309.812 -308.824)">
    <path id="Path_252" data-name="Path 252" d="M400.648,311.121a19.661,19.661,0,0,0-9.253-2.3,19.415,19.415,0,0,0-14.719,6.655,19.7,19.7,0,0,0-23.992-4.358,18.253,18.253,0,0,0-9.89,16.1,17.493,17.493,0,0,0,.945,5.673,31.572,31.572,0,0,0,4.592,9.948,16.949,16.949,0,0,1,7.529-1.557c.393,0,.8.01,1.217.028,5.814.267,10.651,3.174,14.535,5.512,2.353,1.416,4.572,2.751,5.932,2.791,3.655.106,5.265,2.068,5.552,3.869a4.387,4.387,0,0,1-.1,1.844c1.486-1.108,3.109-2.383,4.784-3.816,5.927-5.076,8.759-6.789,11.215-6.789a4.45,4.45,0,0,1,3.454,1.592c3.469-4.408,6.141-9.089,7.147-13.422a17.494,17.494,0,0,0,.945-5.673A18.248,18.248,0,0,0,400.648,311.121Zm3.728,20.158a1.292,1.292,0,0,1-1.224.859,1.244,1.244,0,0,1-.416-.048,1.287,1.287,0,0,1-.809-1.64,10.02,10.02,0,0,0,.557-3.227,10.493,10.493,0,0,0-5.7-9.25,11.169,11.169,0,0,0-5.383-1.36,1.268,1.268,0,0,1-1.285-1.287,1.282,1.282,0,0,1,1.285-1.285,13.976,13.976,0,0,1,6.59,1.642,13.1,13.1,0,0,1,7.071,11.54A12.441,12.441,0,0,1,404.376,331.279Z" transform="translate(-24.674)" fill="url(#linear-gradient)"/>
    <g id="Group_16" data-name="Group 16" transform="translate(309.812 343.806)">
      <path id="Path_253" data-name="Path 253" d="M388.369,464.1c1.374-1.409,2.508-3.57,1.612-4.893-1-1.472-2.369-1.417-3.679-.795-3.87,1.84-6.643,5.091-12.712,7.646a38.877,38.877,0,0,1-11,2.795c-9.727,1-20-1.68-25.828-10.235,0,0,10.273,5.056,15.1,3.316s5.685-5.772.931-5.909-11.513-7.891-20.508-8.3-11.332,4.151-16.272,9.416-6.2,8-6.2,8c30.967,1.293,50.378,27.886,78.557-1.033Zm-36.378,2.342a85.805,85.805,0,0,0,12.75-9.125c6.844-5.859,9.657-7.329,11.213-5.355.856,1.085-.188,2.973-2.122,4.65-7.092,6.146-15.164,12.2-21.84,9.83Zm10.388.325a73.554,73.554,0,0,0,11.354-8.3c6.844-5.859,9.846-6.872,11.379-5.15,1.553,1.745-1.736,4.543-4.44,6.519C375.031,463.959,369.763,467.071,362.379,466.764Z" transform="translate(-309.812 -447.691)" fill-rule="evenodd" fill="url(#linear-gradient-2)"/>
      <path id="Path_254" data-name="Path 254" d="M336.762,458.613s10.273,5.056,15.1,3.315,5.685-5.771.932-5.909-11.513-7.891-20.508-8.3-11.332,4.151-16.272,9.416-6.2,7.995-6.2,7.995S323.913,449.944,336.762,458.613Z" transform="translate(-309.813 -447.691)" fill-rule="evenodd" fill="url(#linear-gradient-3)"/>
    </g>
    <path id="Path_255" data-name="Path 255" d="M400.372,311.131a19.693,19.693,0,0,0-9.283-2.307,19.491,19.491,0,0,0-14.774,6.681,19.759,19.759,0,0,0-24.077-4.373,18.315,18.315,0,0,0-9.925,16.157,17.554,17.554,0,0,0,.95,5.7,32.006,32.006,0,0,0,4.769,10.225,20.131,20.131,0,0,1-.851-2.736,15.425,15.425,0,0,1-.839-5.021,16.146,16.146,0,0,1,8.749-14.243,17.425,17.425,0,0,1,21.226,3.854,17.179,17.179,0,0,1,13.021-5.887,17.366,17.366,0,0,1,8.184,2.033,16.9,16.9,0,0,1,4.292,3.24,10.67,10.67,0,0,0-5.32-6.441,11.216,11.216,0,0,0-5.4-1.365,1.272,1.272,0,0,1-1.287-1.292,1.285,1.285,0,0,1,1.287-1.29,14.033,14.033,0,0,1,6.613,1.647,13.144,13.144,0,0,1,7.1,11.58,12.228,12.228,0,0,1-.076,1.358,15.638,15.638,0,0,1,.71,11.827,20.053,20.053,0,0,1-.816,2.635,31.777,31.777,0,0,0,4.733-10.124,17.553,17.553,0,0,0,.947-5.7A18.31,18.31,0,0,0,400.372,311.131Z" transform="translate(-24.314)" fill="url(#linear-gradient-4)"/>
  </g>
</svg>
